<svg width="149" height="191" xmlns="http://www.w3.org/2000/svg"><defs><linearGradient x1="50%" y1="0%" x2="50%" y2="100%" id="a"><stop stop-color="#59D0FC" stop-opacity=".607" offset="0%"/><stop stop-color="#4B79FF" offset="100%"/></linearGradient></defs><path opacity=".372" d="M2 0h145v135.347L74.5 172 2 135.347z"/><path d="M0 135.455L72.5 172l72.5-36.545L72.5 92 0 135.455z" stroke="url(#a)" stroke-dasharray="6" transform="translate(2)"/><path d="M134.343 121.143l.001 9.325-60.106 29.412-60.106-29.411.001-9.325z"/><path d="M74.405 91.908l59.993 29.493-59.817 29.134-59.994-29.494z"/><path opacity=".242" d="M50 43h34v59H50z"/><g transform="translate(44 55)"><ellipse cx="23.5" cy="25" rx="14.5" ry="14"/><path d="M23.492 19.7a5.149 5.149 0 0 0-5.158 5.145c0 2.842 2.316 5.165 5.158 5.165a5.178 5.178 0 0 0 5.165-5.165c0-2.854-2.323-5.146-5.165-5.146zm3.484 27.013L41.555 31.32V6.993H5.448v55.874h27.026V49h-7.567l2.07-2.286zM11.248 24.98c0-6.776 5.468-12.268 12.244-12.268 6.79 0 12.275 5.492 12.275 12.268 0 6.77-5.486 12.256-12.275 12.256-6.776 0-12.244-5.486-12.244-12.256zm48.604 16.766l-3.039-3.225-9.216-9.748-16.834 17.779h4.497v15.487c0 .464.377.828.828.828h22.999a.82.82 0 0 0 .828-.828V46.553h4.497l-4.56-4.806z"/></g></svg>