<svg width="22" height="20" xmlns="http://www.w3.org/2000/svg"><path d="M21.587 8.762L11.825.547s-.034 0-.034-.035l-.035-.034-.034-.034a1.297 1.297 0 0 0-1.478.103L.447 8.762c-.516.413-.55 1.17-.103 1.65.447.482 1.237.55 1.719.104l.825-.722v6.91c0 1.615 1.375 2.955 3.059 2.955h1.822c.687 0 1.237-.515 1.237-1.168v-5.57c0-.343.275-.583.619-.583h2.75c.344 0 .619.275.619.584v5.431c0 .069 0 .172.034.24l.034.138c.104.55.62.928 1.204.928h1.787c1.684 0 3.06-1.34 3.06-2.956V9.828l.825.722c.24.206.515.275.79.275.344 0 .688-.137.928-.412.482-.447.447-1.204-.069-1.65z"/></svg>